<svg width="21" height="22" viewBox="0 0 21 22" fill="none" xmlns="http://www.w3.org/2000/svg">
<path d="M21 11.0001C21 4.92434 16.2996 0.00012207 10.5 0.00012207C4.70039 0.00012207 0 4.92434 0 11.0001C0 17.0759 4.70039 22.0001 10.5 22.0001C10.5615 22.0001 10.623 22.0001 10.6846 21.9958V13.4365H8.42871V10.6822H10.6846V8.65403C10.6846 6.30364 12.0545 5.02317 14.0561 5.02317C15.0158 5.02317 15.8402 5.09622 16.0781 5.13059V7.5884H14.7C13.6131 7.5884 13.3998 8.12981 13.3998 8.92473V10.6779H16.0043L15.6639 13.4322H13.3998V21.5747C17.7885 20.2556 21 16.0232 21 11.0001Z" fill="#717171"/>
</svg>
