<svg width="30" height="30" viewBox="0 0 30 30" fill="none" xmlns="http://www.w3.org/2000/svg">
<path d="M15 0C8.76 0 3.68369 5.07632 3.68369 11.3155C3.68369 20.2989 13.7858 29.3234 14.2161 29.7039C14.4411 29.9013 14.7205 30 15 30C15.2905 30 15.5811 29.8934 15.8076 29.6811C16.2363 29.28 26.3163 19.7589 26.3163 11.3163C26.3163 5.07711 21.2384 0 15 0ZM15 16.7116C12.0197 16.7116 9.60474 14.295 9.60474 11.3171C9.60474 8.33921 12.0197 5.92263 15 5.92263C17.9787 5.92263 20.3937 8.33842 20.3937 11.3171C20.3937 14.2958 17.9787 16.7116 15 16.7116Z" fill="white"/>
</svg>
