<svg width="37" height="37" viewBox="0 0 37 37" fill="none" xmlns="http://www.w3.org/2000/svg">
<path d="M27.436 12.3094C27.037 12.3094 26.7133 11.9858 26.7133 11.5867V6.64526C26.7133 6.24621 27.037 5.9226 27.436 5.9226C27.8351 5.9226 28.1587 6.24621 28.1587 6.64526V11.5867C28.1587 11.9858 27.8351 12.3094 27.436 12.3094Z" fill="white"/>
<path d="M27.4329 5.04255C27.832 5.04255 28.1556 4.719 28.1556 4.31989C28.1556 3.92078 27.832 3.59724 27.4329 3.59724C27.0338 3.59724 26.7103 3.92078 26.7103 4.31989C26.7103 4.719 27.0338 5.04255 27.4329 5.04255Z" fill="white"/>
<path d="M35.0234 7.59201C35.0234 3.40573 31.6183 0 27.4328 0C25.7004 0 24.1018 0.583473 22.8228 1.56426H4.60659C3.15643 1.56426 1.97662 2.744 1.97662 4.19422V30.4825C1.97662 31.9327 3.15643 33.1125 4.60659 33.1125H6.89965V34.37C6.89965 35.8201 8.07946 37 9.52961 37H28.4243C29.8744 37 31.0542 35.8202 31.0542 34.37V24.3466C31.0542 23.9475 30.7306 23.6239 30.3316 23.6239C29.9325 23.6239 29.6089 23.9475 29.6089 24.3466V34.37C29.6089 35.0232 29.0775 35.5547 28.4243 35.5547H9.52961C8.8764 35.5547 8.34496 35.0232 8.34496 34.37V33.1125H23.5013C24.9515 33.1125 26.1313 31.9327 26.1313 30.4825V15.0723C26.5544 15.1457 26.9892 15.184 27.4329 15.184C28.1889 15.184 28.9194 15.0729 29.609 14.8661V17.813C29.609 18.212 29.9326 18.5356 30.3316 18.5356C30.7307 18.5356 31.0543 18.212 31.0543 17.813V14.2629C33.4168 12.9747 35.0234 10.4675 35.0234 7.59201ZM24.686 30.4826C24.686 31.1358 24.1546 31.6673 23.5013 31.6673H4.60659C3.95338 31.6673 3.42194 31.1359 3.42194 30.4826V4.19422C3.42194 3.54102 3.95338 3.00957 4.60659 3.00957H21.3846C20.4775 4.20434 19.9157 5.67495 19.8491 7.27137H7.54288C7.14383 7.27137 6.82023 7.59497 6.82023 7.99402V11.0461C6.82023 11.4451 7.14383 11.7687 7.54288 11.7687H20.565C20.7293 11.7687 20.8807 11.7139 21.0021 11.6215C21.8654 12.9949 23.1561 14.0736 24.686 14.6696V30.4826ZM19.8423 8.71668V10.3234H8.26554V8.71668H19.8423ZM27.4328 13.7386C24.0444 13.7386 21.2877 10.9813 21.2877 7.59194C21.2877 4.20268 24.0444 1.44524 27.4328 1.44524C30.8214 1.44524 33.5781 4.20261 33.5781 7.59194C33.5781 10.9813 30.8214 13.7386 27.4328 13.7386Z" fill="white"/>
<path d="M30.3313 21.7895C30.0336 21.7895 29.7607 21.599 29.6557 21.3211C29.548 21.0359 29.6362 20.7006 29.8732 20.5078C30.1106 20.3146 30.4523 20.2914 30.7127 20.453C30.9725 20.6143 31.1056 20.9325 31.0353 21.2309C30.9592 21.5536 30.6634 21.7895 30.3313 21.7895Z" fill="white"/>
<path d="M20.565 15.7274H7.54288C7.14383 15.7274 6.82022 15.4039 6.82022 15.0047C6.82022 14.6057 7.14383 14.2821 7.54288 14.2821H20.565C20.964 14.2821 21.2877 14.6057 21.2877 15.0047C21.2877 15.4038 20.9641 15.7274 20.565 15.7274Z" fill="white"/>
<path d="M20.565 19.1549H7.54288C7.14383 19.1549 6.82022 18.8313 6.82022 18.4323C6.82022 18.0332 7.14383 17.7096 7.54288 17.7096H20.565C20.964 17.7096 21.2877 18.0332 21.2877 18.4323C21.2877 18.8313 20.9641 19.1549 20.565 19.1549Z" fill="white"/>
<path d="M20.565 22.5825H7.54288C7.14383 22.5825 6.82022 22.2589 6.82022 21.8598C6.82022 21.4608 7.14383 21.1372 7.54288 21.1372H20.565C20.964 21.1372 21.2877 21.4608 21.2877 21.8598C21.2877 22.259 20.9641 22.5825 20.565 22.5825Z" fill="white"/>
<path d="M20.565 26.0101H7.54288C7.14383 26.0101 6.82022 25.6865 6.82022 25.2874C6.82022 24.8883 7.14383 24.5648 7.54288 24.5648H20.565C20.964 24.5648 21.2877 24.8883 21.2877 25.2874C21.2877 25.6865 20.9641 26.0101 20.565 26.0101Z" fill="white"/>
</svg>
