<svg width="30" height="30" viewBox="0 0 30 30" fill="none" xmlns="http://www.w3.org/2000/svg">
<path d="M16.3385 8.23586C15.5944 8.97835 14.3885 8.97835 13.6444 8.23586C12.9005 7.49336 12.9005 6.28944 13.6444 5.54695C14.3885 4.80446 15.5944 4.80446 16.3385 5.54695C17.0824 6.28944 17.0824 7.49336 16.3385 8.23586Z" fill="white"/>
<path d="M18.9409 11.1168C18.7088 11.1168 18.4767 11.0282 18.3 10.8508C17.9467 10.497 17.9473 9.92364 18.3012 9.57047C19.0183 8.85476 19.4131 7.9033 19.4131 6.89141C19.4131 5.87952 19.0183 4.92806 18.3012 4.21235C17.9473 3.85895 17.9467 3.28583 18.3 2.93175C18.6532 2.5779 19.2266 2.57721 19.5804 2.93061C20.6404 3.9885 21.224 5.39498 21.224 6.89141C21.224 8.38761 20.6404 9.79432 19.5804 10.8522C19.4037 11.0287 19.1723 11.1168 18.9409 11.1168Z" fill="white"/>
<path d="M20.9889 13.7826C20.7569 13.7826 20.5248 13.694 20.3481 13.5169C19.9947 13.1628 19.9954 12.5897 20.3492 12.2363C21.7797 10.8085 22.5678 8.91037 22.5678 6.89141C22.5678 4.87244 21.7797 2.97432 20.3492 1.54656C19.9954 1.19317 19.9947 0.620045 20.3481 0.265965C20.7015 -0.0878863 21.2746 -0.088573 21.6284 0.264821C23.4018 2.03476 24.3787 4.38813 24.3785 6.89141C24.3785 9.39469 23.4018 11.7483 21.6284 13.5182C21.4517 13.6945 21.2203 13.7826 20.9889 13.7826Z" fill="white"/>
<path d="M11.0374 11.1168C10.806 11.1168 10.5746 11.0287 10.3977 10.8522C9.33774 9.79432 8.75409 8.38761 8.75409 6.89141C8.75409 5.39498 9.33774 3.9885 10.3977 2.93061C10.7515 2.57722 11.3249 2.57767 11.6781 2.93175C12.0315 3.2856 12.0308 3.85895 11.6769 4.21235C10.9598 4.92806 10.565 5.87952 10.565 6.89141C10.565 7.9033 10.9598 8.85476 11.6769 9.57047C12.0308 9.92364 12.0315 10.497 11.6781 10.8508C11.5014 11.028 11.2693 11.1168 11.0374 11.1168Z" fill="white"/>
<path d="M8.98935 13.7826C8.75772 13.7826 8.52632 13.6945 8.34963 13.518C6.57625 11.7481 5.59961 9.39469 5.59961 6.89141C5.59961 4.3879 6.57625 2.03453 8.34963 0.264592C8.70348 -0.088573 9.27683 -0.0881152 9.62999 0.265965C9.98338 0.619816 9.9827 1.19294 9.62885 1.54633C8.19833 2.97409 7.41029 4.87221 7.41029 6.89118C7.41029 8.91014 8.19833 10.8085 9.62885 12.2363C9.9827 12.5897 9.98338 13.1628 9.62999 13.5169C9.45329 13.694 9.22121 13.7826 8.98935 13.7826Z" fill="white"/>
<path d="M26.9227 15.3479H3.0556C1.88579 15.3479 0.937531 16.2962 0.937531 17.4657V27.8819C0.937531 29.0517 1.88579 30 3.0556 30H26.9224C28.0922 30 29.0405 29.0517 29.0405 27.8819V17.4657C29.0405 16.2962 28.0922 15.3479 26.9227 15.3479ZM7.90262 27.2825H4.56667C4.0668 27.2825 3.66145 26.8771 3.66145 26.377V18.9709C3.66145 18.471 4.0668 18.0654 4.56667 18.0654C5.06678 18.0654 5.47213 18.4708 5.47213 18.9709V25.4715H7.90262C8.40272 25.4715 8.80807 25.8769 8.80807 26.377C8.80807 26.8771 8.40272 27.2825 7.90262 27.2825ZM11.6132 26.377C11.6132 26.8771 11.2079 27.2825 10.7078 27.2825C10.2077 27.2825 9.80233 26.8771 9.80233 26.377V18.9709C9.80233 18.471 10.2077 18.0654 10.7078 18.0654C11.2079 18.0654 11.6132 18.4708 11.6132 18.9709V26.377ZM19.2313 19.2327L16.9954 26.6386C16.9952 26.6393 16.9949 26.64 16.9947 26.6407C16.7519 27.4694 15.5138 27.4491 15.2625 26.6407C15.2623 26.64 15.2621 26.6393 15.2618 26.6386L13.0259 19.2327C12.8815 18.7539 13.1522 18.2487 13.6311 18.1041C14.1094 17.9597 14.615 18.2304 14.7594 18.7092L16.1286 23.2441L17.4978 18.7092C17.6424 18.2304 18.1476 17.9594 18.6264 18.1041C19.105 18.2487 19.376 18.7539 19.2313 19.2327ZM24.8016 21.3022C25.3017 21.3022 25.7071 21.7076 25.7071 22.2077C25.7071 22.7076 25.3017 23.1132 24.8016 23.1132H22.2322V25.4715H25.2894C25.7895 25.4715 26.1948 25.8769 26.1948 26.377C26.1948 26.8771 25.7895 27.2825 25.2894 27.2825H21.3267C20.8266 27.2825 20.4213 26.8771 20.4213 26.377V18.9709C20.4213 18.471 20.8266 18.0654 21.3267 18.0654H25.4114C25.9112 18.0654 26.3168 18.4708 26.3168 18.9709C26.3168 19.471 25.9112 19.8763 25.4114 19.8763H22.232V21.3022H24.8016Z" fill="white"/>
</svg>
