<svg fill="#fff" id="Layer_3" enable-background="new 0 0 64 64" height="512" viewBox="0 0 64 64" width="512" xmlns="http://www.w3.org/2000/svg">
  <path d="m52 17v10.654l-2 2.545v-11.199c0-1.103.897-2 2-2zm-38 2v11.199l-2-2.545v-10.654c1.103 0 2 .897 2 2zm5.535 31.122-7.727-7.727-5.808-10.65v-16.745c0-1.103.897-2 2-2s2 .897 2 2v13c0 .224.075.441.214.618l11 14 1.572-1.235-6.786-8.638v-1.745c0-.551.448-1 1-1h.131c.276 0 .543.116.73.317l12.331 13.212c.521.558.808 1.285.808 2.048v15.423h-10v-7.343c0-1.335-.521-2.591-1.465-3.535zm38.465-18.377-5.809 10.649-7.727 7.727c-.943.945-1.464 2.201-1.464 3.536v7.343h-10v-15.423c0-.763.287-1.489.808-2.047l12.331-13.212c.187-.202.454-.318.73-.318h.131c.552 0 1 .449 1 1v1.745l-6.786 8.637 1.572 1.235 11-14c.139-.176.214-.393.214-.617v-13c0-1.103.897-2 2-2s2 .897 2 2z"/>
  <path d="m22 11h7c.553 0 1-.448 1-1v-7h4v7c0 .552.447 1 1 1h7v4h-7c-.553 0-1 .448-1 1v17h-4v-17c0-.552-.447-1-1-1h-7z"/>
</svg>
