<svg width="21" height="22" viewBox="0 0 21 22" fill="none" xmlns="http://www.w3.org/2000/svg">
<g clip-path="url(#clip0)">
<path d="M14.4375 0.00012207H6.5625C2.93869 0.00012207 0 3.07875 0 6.87512V15.1251C0 18.9215 2.93869 22.0001 6.5625 22.0001H14.4375C18.0613 22.0001 21 18.9215 21 15.1251V6.87512C21 3.07875 18.0613 0.00012207 14.4375 0.00012207ZM19.0312 15.1251C19.0312 17.7789 16.9706 19.9376 14.4375 19.9376H6.5625C4.02938 19.9376 1.96875 17.7789 1.96875 15.1251V6.87512C1.96875 4.22137 4.02938 2.06262 6.5625 2.06262H14.4375C16.9706 2.06262 19.0312 4.22137 19.0312 6.87512V15.1251Z" fill="#717171"/>
<path d="M10.5 5.50012C7.60069 5.50012 5.25 7.96275 5.25 11.0001C5.25 14.0375 7.60069 16.5001 10.5 16.5001C13.3993 16.5001 15.75 14.0375 15.75 11.0001C15.75 7.96275 13.3993 5.50012 10.5 5.50012ZM10.5 14.4376C8.69138 14.4376 7.21875 12.8949 7.21875 11.0001C7.21875 9.104 8.69138 7.56262 10.5 7.56262C12.3086 7.56262 13.7812 9.104 13.7812 11.0001C13.7812 12.8949 12.3086 14.4376 10.5 14.4376Z" fill="#717171"/>
<path d="M16.1437 5.82049C16.5301 5.82049 16.8433 5.49237 16.8433 5.08761C16.8433 4.68286 16.5301 4.35474 16.1437 4.35474C15.7574 4.35474 15.4442 4.68286 15.4442 5.08761C15.4442 5.49237 15.7574 5.82049 16.1437 5.82049Z" fill="#717171"/>
</g>
<defs>
<clipPath id="clip0">
<rect width="21" height="22" fill="white" transform="translate(0 0.00012207)"/>
</clipPath>
</defs>
</svg>
