<svg width="31" height="22" viewBox="0 0 31 22" fill="none" xmlns="http://www.w3.org/2000/svg">
<path d="M30.3662 3.50177C30.0205 2.21655 29.0072 1.20343 27.7222 0.857361C25.3746 0.215027 15.984 0.215027 15.984 0.215027C15.984 0.215027 6.59381 0.215027 4.24622 0.833008C2.9859 1.17871 1.94788 2.21674 1.60217 3.50177C0.984375 5.84918 0.984375 10.7174 0.984375 10.7174C0.984375 10.7174 0.984375 15.6102 1.60217 17.933C1.94824 19.2181 2.96118 20.2312 4.2464 20.5773C6.61853 21.2198 15.9844 21.2198 15.9844 21.2198C15.9844 21.2198 25.3746 21.2198 27.7222 20.6018C29.0074 20.2559 30.0205 19.2428 30.3666 17.9578C30.9842 15.6102 30.9842 10.7421 30.9842 10.7421C30.9842 10.7421 31.0089 5.84918 30.3662 3.50177ZM12.9943 15.2148V6.21997L20.803 10.7174L12.9943 15.2148Z" fill="#717171"/>
</svg>
